<?xml version="1.0" encoding="utf-8"?>
<!-- Generator: Adobe Illustrator 25.2.0, SVG Export Plug-In . SVG Version: 6.00 Build 0)  -->
<svg version="1.1" id="Capa_1" xmlns="http://www.w3.org/2000/svg" xmlns:xlink="http://www.w3.org/1999/xlink" x="0px" y="0px"
	 viewBox="0 0 595.28 841.89" style="enable-background:new 0 0 595.28 841.89;" xml:space="preserve">
<style type="text/css">
	.st0{fill:#FFFFFF;}
	.st1{fill:#F0E63F;}
	.st2{fill:#F39222;}
	.st3{fill:#F5CE0F;}
	.st4{fill:#EAB620;}
	.st5{fill:#4E9464;}
</style>
<g id="_x30_16">
	<polygon id="路径" class="st0" points="401.25,274.03 430.11,255.36 411.46,284.25 430.11,313.15 401.25,294.47 372.4,313.15 
		391.06,284.25 372.4,255.36 	"/>
	<polygon id="路径_1_" class="st0" points="199.27,412.81 219.34,399.81 206.37,419.92 219.34,440.01 199.27,427.02 179.2,440.01 
		192.17,419.92 179.2,399.81 	"/>
	<polygon id="路径_5_" class="st1" points="245.72,664.6 213.9,605.84 158.87,642.57 210.98,436.53 297.85,458.55 	"/>
	<polygon id="路径_6_" class="st2" points="253.99,447.44 213.92,605.86 245.72,664.6 297.85,458.55 	"/>
	<polygon id="路径_7_" class="st1" points="351.5,657.02 376.7,595.13 435.41,625.63 361.12,426.52 277.2,457.9 	"/>
	<polygon id="路径_8_" class="st2" points="319.57,442.06 376.7,595.15 351.5,657.02 277.2,457.9 	"/>
	<polygon id="路径_9_" class="st1" points="297.14,177.4 312.97,198.9 332.89,181.16 343.9,205.47 367.08,192.29 372.8,218.35 
		398.22,210.28 398.39,236.98 424.93,234.37 419.57,260.51 446.06,263.48 435.37,287.95 460.68,296.36 445.16,318.07 468.15,331.58 
		448.46,349.57 468.15,367.57 445.16,381.07 460.68,402.78 435.37,411.19 446.06,435.66 419.57,438.63 424.93,464.77 398.39,462.17 
		398.22,488.86 372.8,480.79 367.08,506.86 343.9,493.67 332.89,517.97 312.97,500.25 297.14,521.74 281.33,500.25 261.4,517.97 
		250.38,493.67 227.2,506.86 221.48,480.79 196.08,488.86 195.89,462.17 169.36,464.77 174.71,438.63 148.23,435.66 158.91,411.19 
		133.6,402.78 149.12,381.07 126.13,367.57 145.83,349.57 126.13,331.58 149.12,318.07 133.6,296.36 158.91,287.95 148.23,263.48 
		174.71,260.51 169.36,234.37 195.89,236.98 196.08,210.28 221.48,218.35 227.2,192.29 250.38,205.47 261.4,181.16 281.33,198.9 	
		"/>
	<ellipse id="椭圆形" class="st3" cx="297.14" cy="349.57" rx="123.57" ry="123.73"/>
	<path id="路径_10_" class="st4" d="M356.29,240.92c12.64,33.29,10.88,74.34-1.69,105.6c-21.77,54.09-59.19,95.1-112.75,113.59
		c16.65,8.37,35.39,13.19,55.29,13.19c68.24,0,123.57-55.4,123.57-123.74C420.72,302.7,394.68,261.92,356.29,240.92z"/>
	<g id="编组" transform="translate(86.511959, 116.122418)">
		<polygon id="路径_2_" class="st5" points="146.78,190.53 146.44,190.53 127.37,200.84 124.5,189.51 148.47,176.68 
			161.14,176.68 161.14,286.52 146.79,286.52 146.79,190.53 		"/>
		<path id="路径_3_" class="st5" d="M186.74,271.32c4.4,2.87,12.16,5.92,19.59,5.92c10.77,0,15.86-5.42,15.86-12.17
			c0-7.11-4.22-10.99-15.2-15.05c-14.69-5.24-21.6-13.36-21.6-23.15c0-13.18,10.64-24,28.18-24c8.27,0,15.52,2.36,20.08,5.06
			l-3.7,10.82c-3.21-2.03-9.12-4.74-16.71-4.74c-8.79,0-13.68,5.08-13.68,11.15c0,6.76,4.88,9.81,15.53,13.86
			c14.17,5.41,21.43,12.51,21.43,24.67c0,14.38-11.13,24.51-30.55,24.51c-8.92,0-17.21-2.2-22.93-5.58L186.74,271.32z"/>
		<path id="路径_4_" class="st5" d="M273.51,181.25v23.49h21.25v11.33h-21.25v44.11c0,10.14,2.85,15.89,11.13,15.89
			c3.88,0,6.75-0.51,8.6-1.02l0.69,11.16c-2.87,1.19-7.42,2.03-13.17,2.03c-6.91,0-12.5-2.2-16.02-6.25
			c-4.23-4.4-5.75-11.66-5.75-21.31v-44.61h-12.65v-11.33h12.65v-19.61L273.51,181.25z"/>
	</g>
</g>
</svg>
