<?xml version="1.0" encoding="utf-8"?>
<!-- Generator: Adobe Illustrator 25.2.0, SVG Export Plug-In . SVG Version: 6.00 Build 0)  -->
<svg version="1.1" id="Capa_1" xmlns="http://www.w3.org/2000/svg" xmlns:xlink="http://www.w3.org/1999/xlink" x="0px" y="0px"
	 viewBox="0 0 595.28 841.89" style="enable-background:new 0 0 595.28 841.89;" xml:space="preserve">
<style type="text/css">
	.st0{fill:#EFC022;}
	.st1{fill:#A06D29;}
	.st2{fill:#D0963A;}
	.st3{fill:#F5DB0F;}
	.st4{fill:#FDED70;}
	.st5{fill:#DF9426;}
	.st6{fill:#FFDD18;}
	.st7{fill:#F1C526;}
</style>
<g id="_x30_41" transform="translate(482.000000, 10.000000)">
	<g id="编组_1_" transform="translate(0.874255, 18.459887)">
		<path id="路径_11_" class="st0" d="M-241.2,360.18c-35.88-3.59-74.23-22.39-100.1-49.07c-24.58-25.37-50.34-76.79-30.63-111.71
			c6.58-11.66,15.81-15.29,22.39-16.29c23.05-3.49,48.49,19.75,51.3,22.42l-13.13,13.86l6.56-6.93l-6.55,6.93
			c-8.07-7.58-24.81-19.01-35.35-17.42c-2.23,0.34-5.55,1.42-8.59,6.79c-13.89,24.61,7.58,68.3,27.72,89.09
			c22.52,23.22,57.18,40.24,88.27,43.35L-241.2,360.18z"/>
		<path id="路径_12_" class="st0" d="M-130.26,360.18l-1.9-18.98c31.1-3.11,65.75-20.13,88.27-43.36
			c20.15-20.78,41.62-64.47,27.72-89.08c-3.04-5.37-6.36-6.45-8.6-6.79c-10.97-1.67-28.54,11.01-35.32,17.42l-13.14-13.86
			c2.82-2.65,28.21-25.9,51.3-22.42c6.58,1,15.8,4.62,22.39,16.29c19.71,34.91-6.05,86.33-30.62,111.71
			C-56.03,337.79-94.38,356.59-130.26,360.18z"/>
	</g>
	<path id="路径_13_" class="st1" d="M-67.85,501.49h-234v100.76h0.38c4.71,20.64,55.12,36.89,116.61,36.89
		c61.49,0,111.91-16.25,116.62-36.89h0.38V501.49z"/>
	<ellipse id="椭圆形_1_" class="st2" cx="-184.85" cy="498.92" rx="116.98" ry="37.48"/>
	<path id="路径_14_" class="st3" d="M-90.01,500.22L-94.09,488l-36.72-15.77V459l-38.75-22.91l-14.79-1.43v-0.1l-0.51,0.05
		l-0.51-0.05v0.1l-14.8,1.43L-238.91,459v13.23L-275.62,488l-4.07,12.22c30.46,24.13,88.85,22.64,94.84,22.42
		C-178.86,522.87-120.46,524.35-90.01,500.22z"/>
	<path id="路径_15_" class="st4" d="M-130.8,472.23V459l-0.7-0.42c-15.93,4.28-34.07,6.69-53.35,6.69s-37.41-2.41-53.35-6.69
		l-0.7,0.42v13.23L-275.62,488l-4.07,12.22c30.46,24.13,88.85,22.64,94.84,22.42c5.99,0.23,64.39,1.72,94.85-22.42L-94.09,488
		L-130.8,472.23z"/>
	<path id="路径_16_" class="st3" d="M-129.76,472.67c-16.35,4.58-35.12,7.18-55.09,7.18c-19.97,0-38.76-2.6-55.1-7.18L-275.62,488
		l-4.07,12.22c30.46,24.13,88.85,22.64,94.84,22.42c5.99,0.23,64.39,1.72,94.85-22.42L-94.09,488L-129.76,472.67z"/>
	<path id="路径_17_" class="st3" d="M-311.99,205.1c0,0.14,0,0.29,0,0.43c0,110.91,56.92,200.81,127.13,200.81
		s127.13-89.9,127.13-200.81c0-0.14,0-0.29,0-0.43H-311.99z"/>
	<ellipse id="椭圆形_2_" class="st5" cx="-184.85" cy="205.51" rx="127.13" ry="22.66"/>
	<ellipse id="椭圆形_3_" class="st6" cx="-184.85" cy="205.51" rx="114.59" ry="19.19"/>
	<ellipse id="椭圆形_4_" class="st3" cx="-184.86" cy="417.39" rx="39.63" ry="22.6"/>
	<path id="路径_18_" class="st7" d="M-94.71,487.74c-20.91,13.6-53.5,22.34-90.14,22.34c-36.63,0-69.23-8.75-90.14-22.34
		l-0.63,0.27l-4.07,12.22c30.46,24.13,88.85,22.64,94.84,22.41c5.99,0.23,64.39,1.72,94.85-22.42L-94.09,488L-94.71,487.74z"/>
</g>
</svg>
