<svg width="50" height="79" viewBox="0 0 50 79" fill="none" xmlns="http://www.w3.org/2000/svg">
<path fill-rule="evenodd" clip-rule="evenodd" d="M37.5868 38.9288C37.5188 39.3867 37.353 39.8225 37.1018 40.2035C36.8507 40.5846 36.5208 40.901 36.1368 41.1291C35.3634 41.6538 34.6867 41.9161 34.002 42.1785C32.5439 42.7074 31.0093 43.2363 29.3861 43.8499C27.6743 44.4634 26.1396 45.077 24.7702 45.5213C23.0624 46.1348 21.4391 46.6637 19.8965 47.2773C18.7358 47.799 17.6457 48.4791 16.6541 49.2999C15.7318 50.1776 14.927 51.1826 14.2615 52.2872C13.5768 53.5143 13.1458 55.0969 13.1458 56.9418C13.1458 60.6358 13.9997 63.4454 15.7115 65.2014C17.4193 67.0506 20.5852 67.9265 25.2777 67.9265C30.0628 67.9265 33.3092 66.9617 35.0251 65.0279C36.7289 63.0942 37.5828 60.3734 37.5828 56.8614V38.9288H37.5868ZM25.2817 0C33.6596 0 39.8102 1.6714 43.7373 5.09882C47.6685 8.44162 49.6341 12.7407 49.6341 17.8353V61.2493C49.6341 63.0054 49.2958 64.9391 48.6996 67.0463C48.0955 69.162 46.9032 71.0915 45.0222 72.8433C43.2298 74.6078 40.7527 76.1015 37.5908 77.244C34.429 78.3864 30.3286 79 25.2857 79C20.2509 79 16.1425 78.3864 12.9847 77.244C9.82685 76.1015 7.34569 74.6078 5.5533 72.8433C3.88589 71.2648 2.62275 69.2714 1.87989 67.0463C1.27572 64.9433 0.93335 63.0096 0.93335 61.2536V54.3141C0.93335 50.6201 1.87184 47.1927 3.75285 44.2011C5.63385 41.1291 8.28015 39.0218 11.6998 37.7017C13.4076 37.0881 15.3732 36.4746 17.5925 35.6833C19.8159 34.8878 21.8621 34.0965 23.9163 33.3983C25.9705 32.6917 27.7629 31.9851 29.2975 31.3673C30.2236 30.978 31.1642 30.6279 32.117 30.3179L33.6556 29.5266C34.2598 29.1754 34.8519 28.6465 35.452 27.9441C36.0482 27.2459 36.5597 26.4546 36.9907 25.5745C37.446 24.6214 37.6806 23.5689 37.6754 22.5025V19.6886C37.6817 18.6573 37.4756 17.6368 37.0712 16.6971C36.7329 15.6392 36.0482 14.6744 35.1097 13.7986C34.1712 12.9184 32.8863 12.216 31.3517 11.6829C29.813 11.1624 27.7669 10.8958 25.4549 10.8958C20.6698 10.8958 17.508 11.869 15.8001 13.8832C14.3501 15.6434 13.4962 17.8395 13.327 20.298C13.327 20.8269 12.9001 21.1781 12.3845 21.1781L1.96448 21.3558C1.71696 21.3569 1.47903 21.2553 1.30251 21.073C1.12598 20.8908 1.02515 20.6426 1.02196 20.3826V17.8438C1.02196 15.3769 1.45294 13.0919 2.39143 10.8958C3.33395 8.6955 4.788 6.85485 6.74957 5.26808C8.71516 3.68977 11.2809 2.37381 14.3542 1.49368C17.3468 0.435833 21.0202 0 25.2898 0H25.2817Z" fill="#3C5B3E"/>
</svg>
